<svg width="1440" height="1024" viewBox="0 0 1440 1024" fill="none" xmlns="http://www.w3.org/2000/svg">
<g clip-path="url(#clip0_87_307)">
<rect width="1440" height="1024" fill="#202020"/>
<path d="M52.744 203.816C47.912 203.816 43.608 202.92 39.832 201.128V195.08C43.704 197.096 48.008 198.104 52.744 198.104C55.016 198.104 56.68 197.672 57.736 196.808C58.792 195.944 59.336 194.792 59.368 193.352C59.368 191.944 58.872 190.888 57.88 190.184C56.92 189.48 55.384 188.84 53.272 188.264L50.008 187.352C48.152 186.84 46.536 186.232 45.16 185.528C43.784 184.792 42.632 183.736 41.704 182.36C40.776 180.952 40.312 179.144 40.312 176.936C40.312 173.352 41.384 170.632 43.528 168.776C45.672 166.888 48.696 165.944 52.6 165.944C54.936 165.944 56.984 166.168 58.744 166.616C60.536 167.032 62.36 167.672 64.216 168.536V174.392C60.728 172.568 56.856 171.656 52.6 171.656C48.824 171.656 46.936 173.24 46.936 176.408C46.968 177.816 47.4 178.856 48.232 179.528C49.096 180.2 50.568 180.808 52.648 181.352L55.96 182.264C57.976 182.808 59.688 183.464 61.096 184.232C62.504 185 63.672 186.104 64.6 187.544C65.528 188.952 65.992 190.792 65.992 193.064C65.96 196.392 64.76 199.016 62.392 200.936C60.056 202.856 56.84 203.816 52.744 203.816ZM84.5789 203.816C81.6029 203.816 79.0749 203.192 76.9949 201.944C74.9149 200.696 73.3469 199 72.2909 196.856C71.2669 194.68 70.7549 192.248 70.7549 189.56C70.7549 186.904 71.2669 184.504 72.2909 182.36C73.3469 180.216 74.9149 178.52 76.9949 177.272C79.0749 176.024 81.6029 175.4 84.5789 175.4C87.5229 175.4 90.0189 176.024 92.0669 177.272C94.1469 178.52 95.6989 180.216 96.7229 182.36C97.7789 184.504 98.3069 186.904 98.3069 189.56C98.3069 192.248 97.7789 194.68 96.7229 196.856C95.6989 199 94.1469 200.696 92.0669 201.944C90.0189 203.192 87.5229 203.816 84.5789 203.816ZM84.5789 198.2C86.8509 198.2 88.5949 197.432 89.8109 195.896C91.0269 194.328 91.6349 192.216 91.6349 189.56C91.6349 186.904 91.0269 184.808 89.8109 183.272C88.5949 181.736 86.8509 180.968 84.5789 180.968C82.2749 180.968 80.4989 181.736 79.2509 183.272C78.0349 184.808 77.4269 186.904 77.4269 189.56C77.4269 192.216 78.0349 194.328 79.2509 195.896C80.4989 197.432 82.2749 198.2 84.5789 198.2ZM118.276 175.4C120.644 175.4 122.74 175.928 124.564 176.984C126.42 178.04 127.86 179.64 128.884 181.784C129.908 183.896 130.42 186.504 130.42 189.608C130.42 192.712 129.908 195.336 128.884 197.48C127.86 199.592 126.42 201.176 124.564 202.232C122.74 203.288 120.644 203.816 118.276 203.816C115.716 203.816 113.22 202.84 110.788 200.888V203H104.356V162.392H110.788V178.28C113.188 176.36 115.684 175.4 118.276 175.4ZM117.076 198.008C119.252 198.008 120.9 197.304 122.02 195.896C123.14 194.456 123.7 192.36 123.7 189.608C123.7 186.856 123.14 184.76 122.02 183.32C120.9 181.88 119.252 181.16 117.076 181.16C114.996 181.16 112.9 181.976 110.788 183.608V195.56C112.836 197.192 114.932 198.008 117.076 198.008ZM151.682 175.592V181.352H150.578C147.954 181.352 145.378 182.344 142.85 184.328V203H136.418V176.168H142.85V178.856C145.314 176.68 147.89 175.592 150.578 175.592H151.682ZM162.037 191.048C162.549 195.912 165.237 198.344 170.101 198.344C171.349 198.344 172.565 198.184 173.749 197.864C174.933 197.544 176.261 197.032 177.733 196.328L179.461 201.416C177.925 202.28 176.357 202.888 174.757 203.24C173.157 203.624 171.349 203.816 169.333 203.816C166.357 203.816 163.813 203.224 161.701 202.04C159.589 200.824 157.989 199.144 156.901 197C155.845 194.856 155.317 192.36 155.317 189.512C155.317 186.536 155.877 183.992 156.997 181.88C158.117 179.736 159.637 178.12 161.557 177.032C163.477 175.944 165.621 175.4 167.989 175.4C171.733 175.4 174.661 176.52 176.773 178.76C178.917 180.968 180.005 184.216 180.037 188.504V191.048H162.037ZM167.989 180.872C164.853 180.872 162.949 182.6 162.277 186.056H173.269C173.109 184.264 172.597 182.952 171.733 182.12C170.869 181.288 169.621 180.872 167.989 180.872Z" fill="#00FF80"/>
<path d="M53.48 965.58H47.16L45.54 970H43.54L49.24 954.66H51.4L57.12 970H55.12L53.48 965.58ZM52.82 963.84L50.32 957.08L47.82 963.84H52.82ZM65.1284 958.7V960.46H64.6684C63.5218 960.46 62.4084 960.92 61.3284 961.84V970H59.4484V958.94H61.3284V960.18C62.4218 959.193 63.5351 958.7 64.6684 958.7H65.1284ZM69.7944 960.82V967.14C69.7944 967.673 69.8744 968.04 70.0344 968.24C70.2077 968.427 70.521 968.52 70.9744 968.52C71.3744 968.52 71.801 968.467 72.2544 968.36V970.06C71.6544 970.193 71.121 970.26 70.6544 970.26C69.641 970.26 68.9277 970.053 68.5144 969.64C68.1144 969.227 67.9144 968.533 67.9144 967.56V960.82H66.4744V959.08H67.9144V955.28H69.7944V959.08H72.3544V960.82H69.7944ZM80.2553 958.7C81.6153 958.7 82.622 959.06 83.2753 959.78C83.942 960.5 84.2753 961.687 84.2753 963.34V970H82.3953V963.34C82.3953 962.3 82.2153 961.56 81.8553 961.12C81.5086 960.68 80.8886 960.46 79.9953 960.46C78.9553 960.46 77.9153 960.913 76.8753 961.82V970H74.9953V953.08H76.8753V960.12C77.9553 959.173 79.082 958.7 80.2553 958.7ZM96.9488 958.94V970H95.0688V968.82C93.9754 969.767 92.8488 970.24 91.6888 970.24C90.3288 970.24 89.3154 969.88 88.6488 969.16C87.9954 968.44 87.6688 967.26 87.6688 965.62V958.94H89.5488V965.62C89.5488 966.66 89.7221 967.4 90.0688 967.84C90.4288 968.28 91.0554 968.5 91.9488 968.5C92.9888 968.5 94.0288 968.047 95.0688 967.14V958.94H96.9488ZM106.222 958.7V960.46H105.762C104.616 960.46 103.502 960.92 102.422 961.84V970H100.542V958.94H102.422V960.18C103.516 959.193 104.629 958.7 105.762 958.7H106.222ZM121.643 968.26V970H113.363V954.84H115.303V968.26H121.643ZM125.514 964.62C125.54 965.847 125.847 966.827 126.434 967.56C127.02 968.293 127.954 968.66 129.234 968.66C130.207 968.66 131.274 968.387 132.434 967.84L133.014 969.4C131.8 970.027 130.487 970.34 129.074 970.34C127.9 970.34 126.9 970.093 126.074 969.6C125.247 969.107 124.62 968.42 124.194 967.54C123.767 966.66 123.554 965.633 123.554 964.46C123.554 963.22 123.774 962.167 124.214 961.3C124.667 960.42 125.274 959.753 126.034 959.3C126.794 958.847 127.647 958.62 128.594 958.62C130.047 958.62 131.187 959.073 132.014 959.98C132.84 960.887 133.254 962.187 133.254 963.88V964.62H125.514ZM128.594 960.3C126.94 960.3 125.954 961.213 125.634 963.04H131.274C131.207 962.107 130.954 961.42 130.514 960.98C130.074 960.527 129.434 960.3 128.594 960.3ZM145.093 958.94L140.913 970.18H138.753L134.533 958.94H136.493L139.833 968.1L143.133 958.94H145.093ZM156.2 958.94L151.3 971.78C150.953 972.687 150.64 973.36 150.36 973.8C150.08 974.24 149.747 974.553 149.36 974.74C148.987 974.927 148.467 975.02 147.8 975.02C147.413 975.02 147.02 974.967 146.62 974.86V973.16C146.967 973.24 147.313 973.28 147.66 973.28C148.113 973.28 148.467 973.147 148.72 972.88C148.987 972.613 149.273 972.087 149.58 971.3L150.1 969.96L145.9 958.94H147.86L151.04 967.5L154.3 958.94H156.2ZM162.588 963.2H168.468V964.96H162.588V963.2ZM175.565 968.26C177.378 966.62 178.692 965.4 179.505 964.6C180.318 963.8 180.938 963.067 181.365 962.4C181.805 961.72 182.025 961.047 182.025 960.38C182.025 959.593 181.798 958.993 181.345 958.58C180.892 958.153 180.272 957.94 179.485 957.94C178.338 957.94 177.198 958.213 176.065 958.76V956.98C177.212 956.487 178.438 956.24 179.745 956.24C180.998 956.24 182.018 956.587 182.805 957.28C183.592 957.973 183.985 958.96 183.985 960.24C183.985 961.067 183.778 961.86 183.365 962.62C182.952 963.38 182.418 964.1 181.765 964.78C181.112 965.46 180.192 966.34 179.005 967.42C179.005 967.42 178.705 967.7 178.105 968.26H184.525V970H175.565V968.26ZM190.961 970.34C189.454 970.34 188.341 969.767 187.621 968.62C186.901 967.46 186.541 965.68 186.541 963.28C186.541 960.92 186.901 959.16 187.621 958C188.354 956.827 189.468 956.24 190.961 956.24C192.414 956.24 193.514 956.833 194.261 958.02C195.008 959.193 195.381 960.947 195.381 963.28C195.381 967.987 193.908 970.34 190.961 970.34ZM190.961 968.64C191.761 968.64 192.368 968.207 192.781 967.34C193.208 966.46 193.421 965.067 193.421 963.16C193.421 961.4 193.201 960.093 192.761 959.24C192.334 958.373 191.734 957.94 190.961 957.94C190.134 957.94 189.514 958.373 189.101 959.24C188.701 960.093 188.501 961.44 188.501 963.28C188.501 965.16 188.701 966.527 189.101 967.38C189.501 968.22 190.121 968.64 190.961 968.64ZM197.557 968.26C199.37 966.62 200.684 965.4 201.497 964.6C202.31 963.8 202.93 963.067 203.357 962.4C203.797 961.72 204.017 961.047 204.017 960.38C204.017 959.593 203.79 958.993 203.337 958.58C202.884 958.153 202.264 957.94 201.477 957.94C200.33 957.94 199.19 958.213 198.057 958.76V956.98C199.204 956.487 200.43 956.24 201.737 956.24C202.99 956.24 204.01 956.587 204.797 957.28C205.584 957.973 205.977 958.96 205.977 960.24C205.977 961.067 205.77 961.86 205.357 962.62C204.944 963.38 204.41 964.1 203.757 964.78C203.104 965.46 202.184 966.34 200.997 967.42C200.997 967.42 200.697 967.7 200.097 968.26H206.517V970H197.557V968.26ZM212.513 961.36C214.02 961.36 215.186 961.76 216.013 962.56C216.853 963.347 217.273 964.407 217.273 965.74C217.273 967.207 216.833 968.34 215.953 969.14C215.073 969.94 213.84 970.34 212.253 970.34C211.013 970.34 209.893 970.147 208.893 969.76V968C209.386 968.2 209.913 968.36 210.473 968.48C211.046 968.587 211.6 968.64 212.133 968.64C214.253 968.64 215.313 967.673 215.313 965.74C215.313 964.873 215.046 964.213 214.513 963.76C213.98 963.293 213.226 963.06 212.253 963.06C211.706 963.06 211.153 963.12 210.593 963.24C210.046 963.347 209.553 963.487 209.113 963.66L209.253 956.52H216.493V958.26H211.133L211.053 961.46C211.586 961.393 212.073 961.36 212.513 961.36Z" fill="#00FF80"/>
<rect x="27" y="944" width="208" height="43" rx="21.5" fill="#00FF80" fill-opacity="0.34"/>
<path d="M1184.57 27.712V32.8H1191.58V35.704H1184.57V43H1181.23V24.808H1192.78V27.712H1184.57ZM1201.83 43.408C1200.34 43.408 1199.08 43.096 1198.04 42.472C1197 41.848 1196.21 41 1195.68 39.928C1195.17 38.84 1194.92 37.624 1194.92 36.28C1194.92 34.952 1195.17 33.752 1195.68 32.68C1196.21 31.608 1197 30.76 1198.04 30.136C1199.08 29.512 1200.34 29.2 1201.83 29.2C1203.3 29.2 1204.55 29.512 1205.57 30.136C1206.61 30.76 1207.39 31.608 1207.9 32.68C1208.43 33.752 1208.69 34.952 1208.69 36.28C1208.69 37.624 1208.43 38.84 1207.9 39.928C1207.39 41 1206.61 41.848 1205.57 42.472C1204.55 43.096 1203.3 43.408 1201.83 43.408ZM1201.83 40.6C1202.96 40.6 1203.84 40.216 1204.44 39.448C1205.05 38.664 1205.36 37.608 1205.36 36.28C1205.36 34.952 1205.05 33.904 1204.44 33.136C1203.84 32.368 1202.96 31.984 1201.83 31.984C1200.68 31.984 1199.79 32.368 1199.16 33.136C1198.56 33.904 1198.25 34.952 1198.25 36.28C1198.25 37.608 1198.56 38.664 1199.16 39.448C1199.79 40.216 1200.68 40.6 1201.83 40.6ZM1219.35 29.296V32.176H1218.8C1217.48 32.176 1216.2 32.672 1214.93 33.664V43H1211.72V29.584H1214.93V30.928C1216.16 29.84 1217.45 29.296 1218.8 29.296H1219.35ZM1237.68 29.296C1239.34 29.296 1240.58 29.744 1241.4 30.64C1242.21 31.52 1242.62 32.944 1242.62 34.912V43H1239.41V34.912C1239.41 33.968 1239.23 33.28 1238.88 32.848C1238.53 32.4 1237.92 32.176 1237.05 32.176C1236.01 32.176 1234.94 32.672 1233.84 33.664C1233.89 34.048 1233.91 34.464 1233.91 34.912V43H1230.69V34.912C1230.69 33.968 1230.52 33.28 1230.17 32.848C1229.81 32.4 1229.21 32.176 1228.34 32.176C1227.3 32.176 1226.25 32.64 1225.2 33.568V43H1221.98V29.584H1225.2V30.808C1226.4 29.8 1227.65 29.296 1228.97 29.296C1230.02 29.296 1230.9 29.472 1231.61 29.824C1232.33 30.16 1232.87 30.696 1233.24 31.432C1233.96 30.712 1234.67 30.176 1235.37 29.824C1236.09 29.472 1236.86 29.296 1237.68 29.296ZM1250.83 29.584C1252.41 29.584 1253.61 29.824 1254.43 30.304C1255.26 30.768 1255.81 31.4 1256.08 32.2C1256.35 32.984 1256.49 33.976 1256.49 35.176V43H1253.27V41.776C1252.68 42.32 1252.1 42.712 1251.52 42.952C1250.96 43.192 1250.35 43.312 1249.67 43.312C1248.27 43.312 1247.13 42.912 1246.27 42.112C1245.42 41.296 1244.99 40.184 1244.99 38.776C1244.99 37.336 1245.43 36.224 1246.31 35.44C1247.21 34.64 1248.43 34.24 1249.99 34.24C1251.25 34.24 1252.35 34.488 1253.27 34.984C1253.26 34.376 1253.18 33.888 1253.03 33.52C1252.91 33.152 1252.64 32.872 1252.24 32.68C1251.84 32.472 1251.25 32.368 1250.47 32.368H1248.21V29.584H1250.83ZM1250.25 40.744C1251.23 40.744 1252.23 40.296 1253.27 39.4V37.288C1252.43 36.856 1251.55 36.64 1250.66 36.64C1249.95 36.64 1249.38 36.808 1248.93 37.144C1248.48 37.464 1248.26 37.992 1248.26 38.728C1248.26 39.448 1248.44 39.968 1248.81 40.288C1249.19 40.592 1249.67 40.744 1250.25 40.744ZM1266.33 44.272C1267.17 44.272 1267.81 44.488 1268.25 44.92C1268.72 45.368 1268.95 45.952 1268.95 46.672C1268.95 47.472 1268.67 48.112 1268.11 48.592C1267.57 49.072 1266.76 49.312 1265.69 49.312C1265.22 49.312 1264.79 49.28 1264.39 49.216C1263.99 49.152 1263.58 49.024 1263.17 48.832V46.936C1263.9 47.272 1264.64 47.44 1265.37 47.44C1266.19 47.44 1266.6 47.208 1266.6 46.744C1266.6 46.52 1266.5 46.352 1266.31 46.24C1266.13 46.128 1265.82 46.072 1265.37 46.072C1264.72 46.072 1264.1 46.176 1263.53 46.384L1264.39 43.288C1262.69 43.016 1261.4 42.272 1260.5 41.056C1259.61 39.824 1259.16 38.224 1259.16 36.256C1259.16 34.048 1259.73 32.328 1260.86 31.096C1262.01 29.848 1263.67 29.216 1265.83 29.2C1266.6 29.2 1267.25 29.248 1267.8 29.344C1268.36 29.44 1268.93 29.608 1269.53 29.848V32.848C1268.93 32.56 1268.37 32.36 1267.85 32.248C1267.33 32.136 1266.77 32.08 1266.14 32.08C1263.71 32.096 1262.49 33.48 1262.49 36.232C1262.49 39.08 1263.69 40.504 1266.07 40.504C1267.22 40.504 1268.4 40.16 1269.6 39.472L1270.53 42.16C1269.25 42.88 1267.93 43.288 1266.55 43.384L1266.26 44.272H1266.33ZM1277.76 29.584C1279.34 29.584 1280.54 29.824 1281.36 30.304C1282.19 30.768 1282.74 31.4 1283.01 32.2C1283.28 32.984 1283.42 33.976 1283.42 35.176V43H1280.2V41.776C1279.61 42.32 1279.03 42.712 1278.45 42.952C1277.89 43.192 1277.28 43.312 1276.6 43.312C1275.2 43.312 1274.06 42.912 1273.2 42.112C1272.35 41.296 1271.92 40.184 1271.92 38.776C1271.92 37.336 1272.36 36.224 1273.24 35.44C1274.14 34.64 1275.36 34.24 1276.92 34.24C1278.18 34.24 1279.28 34.488 1280.2 34.984C1280.19 34.376 1280.11 33.888 1279.96 33.52C1279.84 33.152 1279.57 32.872 1279.17 32.68C1278.77 32.472 1278.18 32.368 1277.4 32.368H1275.14V29.584H1277.76ZM1277.18 40.744C1278.16 40.744 1279.16 40.296 1280.2 39.4V37.288C1279.36 36.856 1278.48 36.64 1277.59 36.64C1276.88 36.64 1276.31 36.808 1275.86 37.144C1275.41 37.464 1275.19 37.992 1275.19 38.728C1275.19 39.448 1275.37 39.968 1275.74 40.288C1276.12 40.592 1276.6 40.744 1277.18 40.744ZM1273.82 27.064C1273.84 25.896 1274.05 25.088 1274.47 24.64C1274.88 24.176 1275.44 23.944 1276.12 23.944C1276.64 23.944 1277.11 24.04 1277.54 24.232L1278.43 24.592C1278.81 24.736 1279.09 24.808 1279.27 24.808C1279.65 24.808 1279.84 24.52 1279.84 23.944H1282.15C1282.13 25.112 1281.92 25.928 1281.5 26.392C1281.08 26.84 1280.53 27.064 1279.84 27.064C1279.43 27.064 1278.96 26.968 1278.45 26.776L1277.56 26.416C1277.18 26.272 1276.89 26.2 1276.7 26.2C1276.32 26.2 1276.12 26.488 1276.12 27.064H1273.82ZM1293 43.408C1291.51 43.408 1290.25 43.096 1289.21 42.472C1288.17 41.848 1287.38 41 1286.86 39.928C1286.34 38.84 1286.09 37.624 1286.09 36.28C1286.09 34.952 1286.34 33.752 1286.86 32.68C1287.38 31.608 1288.17 30.76 1289.21 30.136C1290.25 29.512 1291.51 29.2 1293 29.2C1294.47 29.2 1295.72 29.512 1296.74 30.136C1297.78 30.76 1298.56 31.608 1299.07 32.68C1299.6 33.752 1299.86 34.952 1299.86 36.28C1299.86 37.624 1299.6 38.84 1299.07 39.928C1298.56 41 1297.78 41.848 1296.74 42.472C1295.72 43.096 1294.47 43.408 1293 43.408ZM1293 40.6C1294.14 40.6 1295.01 40.216 1295.62 39.448C1296.22 38.664 1296.53 37.608 1296.53 36.28C1296.53 34.952 1296.22 33.904 1295.62 33.136C1295.01 32.368 1294.14 31.984 1293 31.984C1291.85 31.984 1290.96 32.368 1290.34 33.136C1289.73 33.904 1289.42 34.952 1289.42 36.28C1289.42 37.608 1289.73 38.664 1290.34 39.448C1290.96 40.216 1291.85 40.6 1293 40.6Z" fill="white"/>
<path d="M1349.9 46.552C1349.26 46.552 1348.66 46.496 1348.1 46.384V43.528C1348.5 43.608 1348.91 43.648 1349.34 43.648C1349.71 43.648 1349.98 43.584 1350.16 43.456C1350.35 43.328 1350.49 43.096 1350.57 42.76C1350.66 42.424 1350.71 41.92 1350.71 41.248V24.808H1354.05V41.392C1354.05 42.784 1353.93 43.84 1353.69 44.56C1353.45 45.296 1353.03 45.808 1352.44 46.096C1351.86 46.4 1351.02 46.552 1349.9 46.552ZM1364.29 43.408C1362.8 43.408 1361.54 43.096 1360.5 42.472C1359.46 41.848 1358.67 41 1358.15 39.928C1357.63 38.84 1357.38 37.624 1357.38 36.28C1357.38 34.952 1357.63 33.752 1358.15 32.68C1358.67 31.608 1359.46 30.76 1360.5 30.136C1361.54 29.512 1362.8 29.2 1364.29 29.2C1365.76 29.2 1367.01 29.512 1368.03 30.136C1369.07 30.76 1369.85 31.608 1370.36 32.68C1370.89 33.752 1371.15 34.952 1371.15 36.28C1371.15 37.624 1370.89 38.84 1370.36 39.928C1369.85 41 1369.07 41.848 1368.03 42.472C1367.01 43.096 1365.76 43.408 1364.29 43.408ZM1364.29 40.6C1365.43 40.6 1366.3 40.216 1366.91 39.448C1367.51 38.664 1367.82 37.608 1367.82 36.28C1367.82 34.952 1367.51 33.904 1366.91 33.136C1366.3 32.368 1365.43 31.984 1364.29 31.984C1363.14 31.984 1362.25 32.368 1361.63 33.136C1361.02 33.904 1360.71 34.952 1360.71 36.28C1360.71 37.608 1361.02 38.664 1361.63 39.448C1362.25 40.216 1363.14 40.6 1364.29 40.6ZM1386.3 29.584V43.12C1386.3 44.912 1385.81 46.344 1384.83 47.416C1383.86 48.488 1382.35 49.024 1380.3 49.024C1379.16 49.024 1378.15 48.96 1377.27 48.832C1376.39 48.704 1375.55 48.48 1374.73 48.16V45.112C1375.51 45.448 1376.31 45.696 1377.11 45.856C1377.92 46.032 1378.66 46.12 1379.31 46.12C1380.75 46.12 1381.74 45.856 1382.27 45.328C1382.81 44.8 1383.08 43.984 1383.08 42.88V41.464C1381.87 42.44 1380.62 42.928 1379.34 42.928C1377.5 42.928 1376.03 42.352 1374.92 41.2C1373.82 40.048 1373.27 38.328 1373.27 36.04C1373.27 34.552 1373.52 33.296 1374.03 32.272C1374.56 31.248 1375.28 30.48 1376.19 29.968C1377.11 29.456 1378.15 29.2 1379.34 29.2C1380.63 29.2 1381.88 29.68 1383.08 30.64V29.584H1386.3ZM1379.94 40.024C1381.01 40.024 1382.06 39.616 1383.08 38.8V33.304C1382.03 32.488 1380.98 32.08 1379.94 32.08C1378.85 32.08 1378.03 32.424 1377.47 33.112C1376.91 33.8 1376.63 34.776 1376.63 36.04C1376.63 37.416 1376.9 38.424 1377.44 39.064C1378 39.704 1378.83 40.024 1379.94 40.024ZM1396.05 43.408C1394.56 43.408 1393.3 43.096 1392.26 42.472C1391.22 41.848 1390.43 41 1389.9 39.928C1389.39 38.84 1389.14 37.624 1389.14 36.28C1389.14 34.952 1389.39 33.752 1389.9 32.68C1390.43 31.608 1391.22 30.76 1392.26 30.136C1393.3 29.512 1394.56 29.2 1396.05 29.2C1397.52 29.2 1398.77 29.512 1399.79 30.136C1400.83 30.76 1401.61 31.608 1402.12 32.68C1402.65 33.752 1402.91 34.952 1402.91 36.28C1402.91 37.624 1402.65 38.84 1402.12 39.928C1401.61 41 1400.83 41.848 1399.79 42.472C1398.77 43.096 1397.52 43.408 1396.05 43.408ZM1396.05 40.6C1397.18 40.6 1398.06 40.216 1398.66 39.448C1399.27 38.664 1399.58 37.608 1399.58 36.28C1399.58 34.952 1399.27 33.904 1398.66 33.136C1398.06 32.368 1397.18 31.984 1396.05 31.984C1394.9 31.984 1394.01 32.368 1393.38 33.136C1392.78 33.904 1392.47 34.952 1392.47 36.28C1392.47 37.608 1392.78 38.664 1393.38 39.448C1394.01 40.216 1394.9 40.6 1396.05 40.6Z" fill="white"/>
<path d="M1066.87 43.408C1064.46 43.408 1062.3 42.96 1060.42 42.064V39.04C1062.35 40.048 1064.5 40.552 1066.87 40.552C1068.01 40.552 1068.84 40.336 1069.37 39.904C1069.9 39.472 1070.17 38.896 1070.18 38.176C1070.18 37.472 1069.94 36.944 1069.44 36.592C1068.96 36.24 1068.19 35.92 1067.14 35.632L1065.5 35.176C1064.58 34.92 1063.77 34.616 1063.08 34.264C1062.39 33.896 1061.82 33.368 1061.35 32.68C1060.89 31.976 1060.66 31.072 1060.66 29.968C1060.66 28.176 1061.19 26.816 1062.26 25.888C1063.34 24.944 1064.85 24.472 1066.8 24.472C1067.97 24.472 1068.99 24.584 1069.87 24.808C1070.77 25.016 1071.68 25.336 1072.61 25.768V28.696C1070.86 27.784 1068.93 27.328 1066.8 27.328C1064.91 27.328 1063.97 28.12 1063.97 29.704C1063.98 30.408 1064.2 30.928 1064.62 31.264C1065.05 31.6 1065.78 31.904 1066.82 32.176L1068.48 32.632C1069.49 32.904 1070.34 33.232 1071.05 33.616C1071.75 34 1072.34 34.552 1072.8 35.272C1073.26 35.976 1073.5 36.896 1073.5 38.032C1073.48 39.696 1072.88 41.008 1071.7 41.968C1070.53 42.928 1068.92 43.408 1066.87 43.408ZM1082.79 43.408C1081.3 43.408 1080.04 43.096 1079 42.472C1077.96 41.848 1077.17 41 1076.65 39.928C1076.13 38.84 1075.88 37.624 1075.88 36.28C1075.88 34.952 1076.13 33.752 1076.65 32.68C1077.17 31.608 1077.96 30.76 1079 30.136C1080.04 29.512 1081.3 29.2 1082.79 29.2C1084.26 29.2 1085.51 29.512 1086.53 30.136C1087.57 30.76 1088.35 31.608 1088.86 32.68C1089.39 33.752 1089.65 34.952 1089.65 36.28C1089.65 37.624 1089.39 38.84 1088.86 39.928C1088.35 41 1087.57 41.848 1086.53 42.472C1085.51 43.096 1084.26 43.408 1082.79 43.408ZM1082.79 40.6C1083.93 40.6 1084.8 40.216 1085.41 39.448C1086.01 38.664 1086.32 37.608 1086.32 36.28C1086.32 34.952 1086.01 33.904 1085.41 33.136C1084.8 32.368 1083.93 31.984 1082.79 31.984C1081.64 31.984 1080.75 32.368 1080.13 33.136C1079.52 33.904 1079.21 34.952 1079.21 36.28C1079.21 37.608 1079.52 38.664 1080.13 39.448C1080.75 40.216 1081.64 40.6 1082.79 40.6ZM1099.64 29.2C1100.82 29.2 1101.87 29.464 1102.78 29.992C1103.71 30.52 1104.43 31.32 1104.94 32.392C1105.45 33.448 1105.71 34.752 1105.71 36.304C1105.71 37.856 1105.45 39.168 1104.94 40.24C1104.43 41.296 1103.71 42.088 1102.78 42.616C1101.87 43.144 1100.82 43.408 1099.64 43.408C1098.36 43.408 1097.11 42.92 1095.89 41.944V43H1092.68V22.696H1095.89V30.64C1097.09 29.68 1098.34 29.2 1099.64 29.2ZM1099.04 40.504C1100.13 40.504 1100.95 40.152 1101.51 39.448C1102.07 38.728 1102.35 37.68 1102.35 36.304C1102.35 34.928 1102.07 33.88 1101.51 33.16C1100.95 32.44 1100.13 32.08 1099.04 32.08C1098 32.08 1096.95 32.488 1095.89 33.304V39.28C1096.92 40.096 1097.97 40.504 1099.04 40.504ZM1116.34 29.296V32.176H1115.79C1114.48 32.176 1113.19 32.672 1111.93 33.664V43H1108.71V29.584H1111.93V30.928C1113.16 29.84 1114.45 29.296 1115.79 29.296H1116.34ZM1121.52 37.024C1121.77 39.456 1123.12 40.672 1125.55 40.672C1126.17 40.672 1126.78 40.592 1127.37 40.432C1127.97 40.272 1128.63 40.016 1129.37 39.664L1130.23 42.208C1129.46 42.64 1128.68 42.944 1127.88 43.12C1127.08 43.312 1126.17 43.408 1125.17 43.408C1123.68 43.408 1122.41 43.112 1121.35 42.52C1120.29 41.912 1119.49 41.072 1118.95 40C1118.42 38.928 1118.16 37.68 1118.16 36.256C1118.16 34.768 1118.44 33.496 1119 32.44C1119.56 31.368 1120.32 30.56 1121.28 30.016C1122.24 29.472 1123.31 29.2 1124.49 29.2C1126.37 29.2 1127.83 29.76 1128.89 30.88C1129.96 31.984 1130.5 33.608 1130.52 35.752V37.024H1121.52ZM1124.49 31.936C1122.93 31.936 1121.97 32.8 1121.64 34.528H1127.13C1127.05 33.632 1126.8 32.976 1126.37 32.56C1125.93 32.144 1125.31 31.936 1124.49 31.936Z" fill="white"/>
<path d="M918.12 24.808C922.408 24.808 924.552 26.728 924.552 30.568C924.552 32.424 924.008 33.84 922.92 34.816C921.848 35.776 920.248 36.256 918.12 36.256H914.568V43H911.232V24.808H918.12ZM921.168 30.496C921.168 29.504 920.912 28.784 920.4 28.336C919.904 27.888 919.144 27.664 918.12 27.664H914.568V33.424H918.12C919.16 33.424 919.928 33.184 920.424 32.704C920.92 32.224 921.168 31.488 921.168 30.496ZM934.818 29.296V32.176H934.266C932.954 32.176 931.666 32.672 930.402 33.664V43H927.186V29.584H930.402V30.928C931.634 29.84 932.922 29.296 934.266 29.296H934.818ZM943.547 43.408C942.059 43.408 940.795 43.096 939.755 42.472C938.715 41.848 937.931 41 937.403 39.928C936.891 38.84 936.635 37.624 936.635 36.28C936.635 34.952 936.891 33.752 937.403 32.68C937.931 31.608 938.715 30.76 939.755 30.136C940.795 29.512 942.059 29.2 943.547 29.2C945.019 29.2 946.267 29.512 947.291 30.136C948.331 30.76 949.107 31.608 949.619 32.68C950.147 33.752 950.411 34.952 950.411 36.28C950.411 37.624 950.147 38.84 949.619 39.928C949.107 41 948.331 41.848 947.291 42.472C946.267 43.096 945.019 43.408 943.547 43.408ZM943.547 40.6C944.683 40.6 945.555 40.216 946.163 39.448C946.771 38.664 947.075 37.608 947.075 36.28C947.075 34.952 946.771 33.904 946.163 33.136C945.555 32.368 944.683 31.984 943.547 31.984C942.395 31.984 941.507 32.368 940.883 33.136C940.275 33.904 939.971 34.952 939.971 36.28C939.971 37.608 940.275 38.664 940.883 39.448C941.507 40.216 942.395 40.6 943.547 40.6ZM953.436 23.632H956.652V27.256H953.436V23.632ZM952.86 49C952.284 49 951.596 48.92 950.796 48.76V45.952C951.244 46.064 951.684 46.12 952.116 46.12C952.628 46.12 952.972 45.984 953.148 45.712C953.34 45.456 953.436 44.968 953.436 44.248V29.536H956.652V45.304C956.652 46.584 956.356 47.52 955.764 48.112C955.172 48.704 954.204 49 952.86 49ZM963.034 37.024C963.29 39.456 964.634 40.672 967.066 40.672C967.69 40.672 968.298 40.592 968.89 40.432C969.482 40.272 970.146 40.016 970.882 39.664L971.746 42.208C970.978 42.64 970.194 42.944 969.394 43.12C968.594 43.312 967.69 43.408 966.682 43.408C965.194 43.408 963.922 43.112 962.866 42.52C961.81 41.912 961.01 41.072 960.466 40C959.938 38.928 959.674 37.68 959.674 36.256C959.674 34.768 959.954 33.496 960.514 32.44C961.074 31.368 961.834 30.56 962.794 30.016C963.754 29.472 964.826 29.2 966.01 29.2C967.882 29.2 969.346 29.76 970.402 30.88C971.474 31.984 972.018 33.608 972.034 35.752V37.024H963.034ZM966.01 31.936C964.442 31.936 963.49 32.8 963.154 34.528H968.65C968.57 33.632 968.314 32.976 967.882 32.56C967.45 32.144 966.826 31.936 966.01 31.936ZM978.699 32.8V38.872C978.699 39.448 978.795 39.848 978.987 40.072C979.179 40.296 979.531 40.408 980.043 40.408C980.555 40.408 981.043 40.344 981.507 40.216V43.024C980.595 43.216 979.843 43.312 979.251 43.312C977.923 43.312 976.963 43.032 976.371 42.472C975.779 41.912 975.483 41.048 975.483 39.88V32.8H973.707V29.896H975.483V25.336H978.699V29.896H981.771V32.8H978.699ZM990.657 43.408C989.169 43.408 987.905 43.096 986.865 42.472C985.825 41.848 985.041 41 984.513 39.928C984.001 38.84 983.745 37.624 983.745 36.28C983.745 34.952 984.001 33.752 984.513 32.68C985.041 31.608 985.825 30.76 986.865 30.136C987.905 29.512 989.169 29.2 990.657 29.2C992.129 29.2 993.377 29.512 994.401 30.136C995.441 30.76 996.217 31.608 996.729 32.68C997.257 33.752 997.521 34.952 997.521 36.28C997.521 37.624 997.257 38.84 996.729 39.928C996.217 41 995.441 41.848 994.401 42.472C993.377 43.096 992.129 43.408 990.657 43.408ZM990.657 40.6C991.793 40.6 992.665 40.216 993.273 39.448C993.881 38.664 994.185 37.608 994.185 36.28C994.185 34.952 993.881 33.904 993.273 33.136C992.665 32.368 991.793 31.984 990.657 31.984C989.505 31.984 988.617 32.368 987.993 33.136C987.385 33.904 987.081 34.952 987.081 36.28C987.081 37.608 987.385 38.664 987.993 39.448C988.617 40.216 989.505 40.6 990.657 40.6ZM1005.13 43.408C1004.09 43.408 1003.16 43.32 1002.35 43.144C1001.53 42.968 1000.68 42.672 999.801 42.256V39.304C1000.65 39.784 1001.51 40.136 1002.37 40.36C1003.25 40.568 1004.17 40.672 1005.13 40.672C1006.49 40.672 1007.17 40.184 1007.17 39.208C1007.17 38.792 1007.05 38.488 1006.81 38.296C1006.59 38.088 1006.23 37.92 1005.73 37.792L1003.76 37.36C1002.53 37.088 1001.59 36.648 1000.95 36.04C1000.33 35.416 1000.02 34.528 1000.02 33.376C1000.02 30.592 1001.75 29.2 1005.23 29.2C1006.75 29.2 1008.27 29.488 1009.81 30.064V32.896C1009.22 32.608 1008.54 32.376 1007.77 32.2C1007 32.024 1006.2 31.936 1005.37 31.936C1003.98 31.936 1003.28 32.352 1003.28 33.184C1003.28 33.568 1003.39 33.848 1003.62 34.024C1003.86 34.2 1004.21 34.344 1004.67 34.456L1006.62 34.888C1007.91 35.192 1008.87 35.648 1009.5 36.256C1010.12 36.864 1010.43 37.8 1010.43 39.064C1010.43 40.488 1009.95 41.568 1008.99 42.304C1008.03 43.04 1006.75 43.408 1005.13 43.408Z" fill="white"/>
<path d="M733.896 40.264V43H722.232V24.808H733.776V27.544H725.568V32.488H732.576V35.224H725.568V40.264H733.896ZM745.384 43L742.504 38.536L739.768 43H735.976L740.56 35.992L736.216 29.584H740.008L742.6 33.64L745.216 29.584H748.96L744.496 36.184L749.176 43H745.384ZM758.693 29.2C759.877 29.2 760.925 29.464 761.837 29.992C762.765 30.52 763.485 31.32 763.997 32.392C764.509 33.448 764.765 34.752 764.765 36.304C764.765 37.856 764.509 39.168 763.997 40.24C763.485 41.296 762.765 42.088 761.837 42.616C760.925 43.144 759.877 43.408 758.693 43.408C757.413 43.408 756.165 42.92 754.949 41.944V48.616H751.733V29.584H754.949V30.64C756.149 29.68 757.397 29.2 758.693 29.2ZM758.093 40.504C759.181 40.504 760.005 40.152 760.565 39.448C761.125 38.728 761.405 37.68 761.405 36.304C761.405 34.928 761.125 33.88 760.565 33.16C760.005 32.44 759.181 32.08 758.093 32.08C757.053 32.08 756.005 32.488 754.949 33.304V39.28C755.973 40.096 757.021 40.504 758.093 40.504ZM770.308 37.024C770.564 39.456 771.908 40.672 774.34 40.672C774.964 40.672 775.572 40.592 776.164 40.432C776.756 40.272 777.42 40.016 778.156 39.664L779.02 42.208C778.252 42.64 777.468 42.944 776.668 43.12C775.868 43.312 774.964 43.408 773.956 43.408C772.468 43.408 771.196 43.112 770.14 42.52C769.084 41.912 768.284 41.072 767.74 40C767.212 38.928 766.948 37.68 766.948 36.256C766.948 34.768 767.228 33.496 767.788 32.44C768.348 31.368 769.108 30.56 770.068 30.016C771.028 29.472 772.1 29.2 773.284 29.2C775.156 29.2 776.62 29.76 777.676 30.88C778.748 31.984 779.292 33.608 779.308 35.752V37.024H770.308ZM773.284 31.936C771.716 31.936 770.764 32.8 770.428 34.528H775.924C775.844 33.632 775.588 32.976 775.156 32.56C774.724 32.144 774.1 31.936 773.284 31.936ZM789.716 29.296V32.176H789.164C787.852 32.176 786.564 32.672 785.3 33.664V43H782.084V29.584H785.3V30.928C786.532 29.84 787.82 29.296 789.164 29.296H789.716ZM792.35 23.632H795.566V27.256H792.35V23.632ZM792.35 29.584H795.566V43H792.35V29.584ZM801.948 37.024C802.204 39.456 803.548 40.672 805.98 40.672C806.604 40.672 807.212 40.592 807.804 40.432C808.396 40.272 809.06 40.016 809.796 39.664L810.66 42.208C809.892 42.64 809.108 42.944 808.308 43.12C807.508 43.312 806.604 43.408 805.596 43.408C804.108 43.408 802.836 43.112 801.78 42.52C800.724 41.912 799.924 41.072 799.38 40C798.852 38.928 798.588 37.68 798.588 36.256C798.588 34.768 798.868 33.496 799.428 32.44C799.988 31.368 800.748 30.56 801.708 30.016C802.668 29.472 803.74 29.2 804.924 29.2C806.796 29.2 808.26 29.76 809.316 30.88C810.388 31.984 810.932 33.608 810.948 35.752V37.024H801.948ZM804.924 31.936C803.356 31.936 802.404 32.8 802.068 34.528H807.564C807.484 33.632 807.228 32.976 806.796 32.56C806.364 32.144 805.74 31.936 804.924 31.936ZM806.22 27.256L804.948 24.832L803.652 27.256H800.412L802.836 23.584H807.036L809.46 27.256H806.22ZM820.853 29.296C822.581 29.296 823.861 29.736 824.693 30.616C825.541 31.496 825.965 32.928 825.965 34.912V43H822.749V34.912C822.749 33.968 822.557 33.28 822.173 32.848C821.805 32.4 821.157 32.176 820.229 32.176C819.141 32.176 818.045 32.648 816.941 33.592V43H813.725V29.584H816.941V30.832C818.157 29.808 819.461 29.296 820.853 29.296ZM835.542 43.408C833.382 43.392 831.726 42.76 830.574 41.512C829.438 40.248 828.87 38.496 828.87 36.256C828.87 34.048 829.438 32.328 830.574 31.096C831.726 29.848 833.382 29.216 835.542 29.2C836.31 29.2 836.966 29.248 837.51 29.344C838.07 29.44 838.646 29.608 839.238 29.848V32.848C838.646 32.56 838.086 32.36 837.558 32.248C837.046 32.136 836.478 32.08 835.854 32.08C833.422 32.096 832.206 33.48 832.206 36.232C832.206 39.08 833.398 40.504 835.782 40.504C836.934 40.504 838.11 40.16 839.31 39.472L840.246 42.16C838.806 42.992 837.238 43.408 835.542 43.408ZM842.787 23.632H846.003V27.256H842.787V23.632ZM842.787 29.584H846.003V43H842.787V29.584ZM854.522 29.584C856.106 29.584 857.306 29.824 858.122 30.304C858.954 30.768 859.506 31.4 859.778 32.2C860.05 32.984 860.186 33.976 860.186 35.176V43H856.97V41.776C856.378 42.32 855.794 42.712 855.218 42.952C854.658 43.192 854.042 43.312 853.37 43.312C851.962 43.312 850.826 42.912 849.962 42.112C849.114 41.296 848.69 40.184 848.69 38.776C848.69 37.336 849.13 36.224 850.01 35.44C850.906 34.64 852.13 34.24 853.682 34.24C854.946 34.24 856.042 34.488 856.97 34.984C856.954 34.376 856.874 33.888 856.73 33.52C856.602 33.152 856.338 32.872 855.938 32.68C855.538 32.472 854.946 32.368 854.162 32.368H851.906V29.584H854.522ZM853.946 40.744C854.922 40.744 855.93 40.296 856.97 39.4V37.288C856.122 36.856 855.25 36.64 854.354 36.64C853.65 36.64 853.074 36.808 852.626 37.144C852.178 37.464 851.954 37.992 851.954 38.728C851.954 39.448 852.138 39.968 852.506 40.288C852.89 40.592 853.37 40.744 853.946 40.744Z" fill="white"/>
<path d="M557.648 313.616H550.672V334H546.256V313.616H539.28V309.744H557.648V313.616ZM564.89 326.032C565.231 329.275 567.023 330.896 570.266 330.896C571.098 330.896 571.908 330.789 572.698 330.576C573.487 330.363 574.372 330.021 575.354 329.552L576.506 332.944C575.482 333.52 574.436 333.925 573.37 334.16C572.303 334.416 571.098 334.544 569.754 334.544C567.77 334.544 566.074 334.149 564.666 333.36C563.258 332.549 562.191 331.429 561.466 330C560.762 328.571 560.41 326.907 560.41 325.008C560.41 323.024 560.783 321.328 561.53 319.92C562.276 318.491 563.29 317.413 564.57 316.688C565.85 315.963 567.279 315.6 568.858 315.6C571.354 315.6 573.306 316.347 574.714 317.84C576.143 319.312 576.868 321.477 576.89 324.336V326.032H564.89ZM568.858 319.248C566.767 319.248 565.498 320.4 565.05 322.704H572.378C572.271 321.509 571.93 320.635 571.354 320.08C570.778 319.525 569.946 319.248 568.858 319.248ZM588.399 334.544C585.519 334.523 583.311 333.68 581.775 332.016C580.261 330.331 579.503 327.995 579.503 325.008C579.503 322.064 580.261 319.771 581.775 318.128C583.311 316.464 585.519 315.621 588.399 315.6C589.423 315.6 590.298 315.664 591.023 315.792C591.77 315.92 592.538 316.144 593.327 316.464V320.464C592.538 320.08 591.791 319.813 591.087 319.664C590.405 319.515 589.647 319.44 588.815 319.44C585.573 319.461 583.951 321.307 583.951 324.976C583.951 328.773 585.541 330.672 588.719 330.672C590.255 330.672 591.823 330.213 593.423 329.296L594.671 332.88C592.751 333.989 590.661 334.544 588.399 334.544ZM607.564 315.728C609.868 315.728 611.575 316.315 612.684 317.488C613.815 318.661 614.38 320.571 614.38 323.216V334H610.092V323.216C610.092 321.957 609.836 321.04 609.324 320.464C608.833 319.867 607.969 319.568 606.732 319.568C605.281 319.568 603.82 320.197 602.348 321.456V334H598.06V316.112H602.348V317.776C603.969 316.411 605.708 315.728 607.564 315.728ZM627.469 334.544C625.485 334.544 623.8 334.128 622.413 333.296C621.027 332.464 619.981 331.333 619.277 329.904C618.595 328.453 618.253 326.832 618.253 325.04C618.253 323.269 618.595 321.669 619.277 320.24C619.981 318.811 621.027 317.68 622.413 316.848C623.8 316.016 625.485 315.6 627.469 315.6C629.432 315.6 631.096 316.016 632.461 316.848C633.848 317.68 634.883 318.811 635.565 320.24C636.269 321.669 636.621 323.269 636.621 325.04C636.621 326.832 636.269 328.453 635.565 329.904C634.883 331.333 633.848 332.464 632.461 333.296C631.096 334.128 629.432 334.544 627.469 334.544ZM627.469 330.8C628.984 330.8 630.147 330.288 630.957 329.264C631.768 328.219 632.173 326.811 632.173 325.04C632.173 323.269 631.768 321.872 630.957 320.848C630.147 319.824 628.984 319.312 627.469 319.312C625.933 319.312 624.749 319.824 623.917 320.848C623.107 321.872 622.701 323.269 622.701 325.04C622.701 326.811 623.107 328.219 623.917 329.264C624.749 330.288 625.933 330.8 627.469 330.8ZM645.71 334.416C643.96 334.416 642.68 334.053 641.87 333.328C641.059 332.581 640.654 331.44 640.654 329.904V306.928H644.942V328.496C644.942 329.264 645.07 329.797 645.326 330.096C645.582 330.395 646.04 330.544 646.702 330.544C647.363 330.544 647.95 330.48 648.462 330.352V334.064C647.459 334.299 646.542 334.416 645.71 334.416ZM659.938 334.544C657.954 334.544 656.269 334.128 654.882 333.296C653.495 332.464 652.45 331.333 651.746 329.904C651.063 328.453 650.722 326.832 650.722 325.04C650.722 323.269 651.063 321.669 651.746 320.24C652.45 318.811 653.495 317.68 654.882 316.848C656.269 316.016 657.954 315.6 659.938 315.6C661.901 315.6 663.565 316.016 664.93 316.848C666.317 317.68 667.351 318.811 668.034 320.24C668.738 321.669 669.09 323.269 669.09 325.04C669.09 326.832 668.738 328.453 668.034 329.904C667.351 331.333 666.317 332.464 664.93 333.296C663.565 334.128 661.901 334.544 659.938 334.544ZM659.938 330.8C661.453 330.8 662.615 330.288 663.426 329.264C664.237 328.219 664.642 326.811 664.642 325.04C664.642 323.269 664.237 321.872 663.426 320.848C662.615 319.824 661.453 319.312 659.938 319.312C658.402 319.312 657.218 319.824 656.386 320.848C655.575 321.872 655.17 323.269 655.17 325.04C655.17 326.811 655.575 328.219 656.386 329.264C657.218 330.288 658.402 330.8 659.938 330.8ZM689.283 316.112V334.16C689.283 336.549 688.632 338.459 687.331 339.888C686.029 341.317 684.013 342.032 681.283 342.032C679.768 342.032 678.424 341.947 677.251 341.776C676.077 341.605 674.947 341.307 673.859 340.88V336.816C674.904 337.264 675.96 337.595 677.027 337.808C678.115 338.043 679.096 338.16 679.97 338.16C681.891 338.16 683.203 337.808 683.907 337.104C684.632 336.4 684.995 335.312 684.995 333.84V331.952C683.373 333.253 681.709 333.904 680.003 333.904C677.549 333.904 675.587 333.136 674.115 331.6C672.643 330.064 671.907 327.771 671.907 324.72C671.907 322.736 672.248 321.061 672.931 319.696C673.635 318.331 674.595 317.307 675.811 316.624C677.027 315.941 678.424 315.6 680.003 315.6C681.731 315.6 683.395 316.24 684.995 317.52V316.112H689.283ZM680.803 330.032C682.232 330.032 683.629 329.488 684.995 328.4V321.072C683.587 319.984 682.189 319.44 680.803 319.44C679.352 319.44 678.253 319.899 677.507 320.816C676.76 321.733 676.387 323.035 676.387 324.72C676.387 326.555 676.749 327.899 677.475 328.752C678.221 329.605 679.331 330.032 680.803 330.032ZM694.154 308.176H698.442V313.008H694.154V308.176ZM694.154 316.112H698.442V334H694.154V316.112ZM709.8 316.112C711.912 316.112 713.512 316.432 714.6 317.072C715.709 317.691 716.445 318.533 716.808 319.6C717.171 320.645 717.352 321.968 717.352 323.568V334H713.064V332.368C712.275 333.093 711.496 333.616 710.728 333.936C709.981 334.256 709.16 334.416 708.264 334.416C706.387 334.416 704.872 333.883 703.72 332.816C702.589 331.728 702.024 330.245 702.024 328.368C702.024 326.448 702.611 324.965 703.784 323.92C704.979 322.853 706.611 322.32 708.68 322.32C710.365 322.32 711.827 322.651 713.064 323.312C713.043 322.501 712.936 321.851 712.744 321.36C712.573 320.869 712.221 320.496 711.688 320.24C711.155 319.963 710.365 319.824 709.32 319.824H706.312V316.112H709.8ZM709.032 330.992C710.333 330.992 711.677 330.395 713.064 329.2V326.384C711.933 325.808 710.771 325.52 709.576 325.52C708.637 325.52 707.869 325.744 707.272 326.192C706.675 326.619 706.376 327.323 706.376 328.304C706.376 329.264 706.621 329.957 707.112 330.384C707.624 330.789 708.264 330.992 709.032 330.992ZM728.11 334.544C726.723 334.544 725.486 334.427 724.398 334.192C723.31 333.957 722.179 333.563 721.006 333.008V329.072C722.136 329.712 723.278 330.181 724.43 330.48C725.603 330.757 726.83 330.896 728.11 330.896C729.923 330.896 730.83 330.245 730.83 328.944C730.83 328.389 730.67 327.984 730.35 327.728C730.051 327.451 729.571 327.227 728.91 327.056L726.286 326.48C724.643 326.117 723.395 325.531 722.542 324.72C721.71 323.888 721.294 322.704 721.294 321.168C721.294 317.456 723.608 315.6 728.238 315.6C730.264 315.6 732.302 315.984 734.35 316.752V320.528C733.56 320.144 732.654 319.835 731.63 319.6C730.606 319.365 729.539 319.248 728.43 319.248C726.574 319.248 725.646 319.803 725.646 320.912C725.646 321.424 725.795 321.797 726.094 322.032C726.414 322.267 726.883 322.459 727.502 322.608L730.094 323.184C731.822 323.589 733.102 324.197 733.934 325.008C734.766 325.819 735.182 327.067 735.182 328.752C735.182 330.651 734.542 332.091 733.262 333.072C731.982 334.053 730.264 334.544 728.11 334.544ZM762.439 316.112V334H758.151V332.336C756.529 333.701 754.791 334.384 752.935 334.384C750.631 334.384 748.913 333.797 747.783 332.624C746.673 331.429 746.119 329.509 746.119 326.864V316.112H750.407V326.864C750.407 328.144 750.652 329.072 751.143 329.648C751.655 330.224 752.529 330.512 753.767 330.512C755.217 330.512 756.679 329.893 758.151 328.656V316.112H762.439ZM772.744 320.4V328.496C772.744 329.264 772.872 329.797 773.128 330.096C773.384 330.395 773.853 330.544 774.536 330.544C775.219 330.544 775.869 330.459 776.488 330.288V334.032C775.272 334.288 774.269 334.416 773.48 334.416C771.709 334.416 770.429 334.043 769.64 333.296C768.851 332.549 768.456 331.397 768.456 329.84V320.4H766.088V316.528H768.456V310.448H772.744V316.528H776.84V320.4H772.744ZM780.56 308.176H784.848V313.008H780.56V308.176ZM780.56 316.112H784.848V334H780.56V316.112ZM795.022 334.416C793.273 334.416 791.993 334.053 791.182 333.328C790.372 332.581 789.966 331.44 789.966 329.904V306.928H794.254V328.496C794.254 329.264 794.382 329.797 794.638 330.096C794.894 330.395 795.353 330.544 796.014 330.544C796.676 330.544 797.262 330.48 797.774 330.352V334.064C796.772 334.299 795.854 334.416 795.022 334.416ZM801.123 308.176H805.411V313.008H801.123V308.176ZM801.123 316.112H805.411V334H801.123V316.112ZM824.257 330.192V334H810.081V330.192L818.753 319.888H810.657V316.112H823.553V319.888L814.913 330.192H824.257ZM834.55 316.112C836.662 316.112 838.262 316.432 839.35 317.072C840.459 317.691 841.195 318.533 841.558 319.6C841.921 320.645 842.102 321.968 842.102 323.568V334H837.814V332.368C837.025 333.093 836.246 333.616 835.478 333.936C834.731 334.256 833.91 334.416 833.014 334.416C831.137 334.416 829.622 333.883 828.47 332.816C827.339 331.728 826.774 330.245 826.774 328.368C826.774 326.448 827.361 324.965 828.534 323.92C829.729 322.853 831.361 322.32 833.43 322.32C835.115 322.32 836.577 322.651 837.814 323.312C837.793 322.501 837.686 321.851 837.494 321.36C837.323 320.869 836.971 320.496 836.438 320.24C835.905 319.963 835.115 319.824 834.07 319.824H831.062V316.112H834.55ZM833.782 330.992C835.083 330.992 836.427 330.395 837.814 329.2V326.384C836.683 325.808 835.521 325.52 834.326 325.52C833.387 325.52 832.619 325.744 832.022 326.192C831.425 326.619 831.126 327.323 831.126 328.304C831.126 329.264 831.371 329.957 831.862 330.384C832.374 330.789 833.014 330.992 833.782 330.992ZM863.003 306.928V334H858.716V332.592C857.094 333.893 855.43 334.544 853.724 334.544C851.292 334.544 849.34 333.733 847.868 332.112C846.396 330.491 845.66 328.133 845.66 325.04C845.66 322.992 846.001 321.264 846.684 319.856C847.366 318.427 848.316 317.36 849.532 316.656C850.748 315.952 852.145 315.6 853.724 315.6C855.452 315.6 857.116 316.24 858.716 317.52V306.928H863.003ZM854.556 330.672C855.964 330.672 857.35 330.128 858.716 329.04V321.072C857.308 319.984 855.921 319.44 854.556 319.44C853.084 319.44 851.974 319.92 851.228 320.88C850.481 321.84 850.108 323.227 850.108 325.04C850.108 326.896 850.481 328.304 851.228 329.264C851.974 330.203 853.084 330.672 854.556 330.672ZM874.363 316.112C876.475 316.112 878.075 316.432 879.163 317.072C880.272 317.691 881.008 318.533 881.371 319.6C881.733 320.645 881.915 321.968 881.915 323.568V334H877.627V332.368C876.837 333.093 876.059 333.616 875.291 333.936C874.544 334.256 873.723 334.416 872.827 334.416C870.949 334.416 869.435 333.883 868.283 332.816C867.152 331.728 866.587 330.245 866.587 328.368C866.587 326.448 867.173 324.965 868.347 323.92C869.541 322.853 871.173 322.32 873.243 322.32C874.928 322.32 876.389 322.651 877.627 323.312C877.605 322.501 877.499 321.851 877.307 321.36C877.136 320.869 876.784 320.496 876.251 320.24C875.717 319.963 874.928 319.824 873.883 319.824H870.875V316.112H874.363ZM873.595 330.992C874.896 330.992 876.24 330.395 877.627 329.2V326.384C876.496 325.808 875.333 325.52 874.139 325.52C873.2 325.52 872.432 325.744 871.835 326.192C871.237 326.619 870.939 327.323 870.939 328.304C870.939 329.264 871.184 329.957 871.675 330.384C872.187 330.789 872.827 330.992 873.595 330.992ZM892.672 334.544C891.285 334.544 890.048 334.427 888.96 334.192C887.872 333.957 886.741 333.563 885.568 333.008V329.072C886.699 329.712 887.84 330.181 888.992 330.48C890.165 330.757 891.392 330.896 892.672 330.896C894.485 330.896 895.392 330.245 895.392 328.944C895.392 328.389 895.232 327.984 894.912 327.728C894.613 327.451 894.133 327.227 893.472 327.056L890.848 326.48C889.205 326.117 887.957 325.531 887.104 324.72C886.272 323.888 885.856 322.704 885.856 321.168C885.856 317.456 888.171 315.6 892.8 315.6C894.827 315.6 896.864 315.984 898.912 316.752V320.528C898.123 320.144 897.216 319.835 896.192 319.6C895.168 319.365 894.101 319.248 892.992 319.248C891.136 319.248 890.208 319.803 890.208 320.912C890.208 321.424 890.357 321.797 890.656 322.032C890.976 322.267 891.445 322.459 892.064 322.608L894.656 323.184C896.384 323.589 897.664 324.197 898.496 325.008C899.328 325.819 899.744 327.067 899.744 328.752C899.744 330.651 899.104 332.091 897.824 333.072C896.544 334.053 894.827 334.544 892.672 334.544Z" fill="white"/>
<path d="M616.064 24.808V43H612.728V35.296H604.568V43H601.232V24.808H604.568V32.416H612.728V24.808H616.064ZM626.305 43.408C624.817 43.408 623.553 43.096 622.513 42.472C621.473 41.848 620.689 41 620.161 39.928C619.649 38.84 619.393 37.624 619.393 36.28C619.393 34.952 619.649 33.752 620.161 32.68C620.689 31.608 621.473 30.76 622.513 30.136C623.553 29.512 624.817 29.2 626.305 29.2C627.777 29.2 629.025 29.512 630.049 30.136C631.089 30.76 631.865 31.608 632.377 32.68C632.905 33.752 633.169 34.952 633.169 36.28C633.169 37.624 632.905 38.84 632.377 39.928C631.865 41 631.089 41.848 630.049 42.472C629.025 43.096 627.777 43.408 626.305 43.408ZM626.305 40.6C627.441 40.6 628.313 40.216 628.921 39.448C629.529 38.664 629.833 37.608 629.833 36.28C629.833 34.952 629.529 33.904 628.921 33.136C628.313 32.368 627.441 31.984 626.305 31.984C625.153 31.984 624.265 32.368 623.641 33.136C623.033 33.904 622.729 34.952 622.729 36.28C622.729 37.608 623.033 38.664 623.641 39.448C624.265 40.216 625.153 40.6 626.305 40.6ZM651.889 29.296C653.553 29.296 654.793 29.744 655.609 30.64C656.425 31.52 656.833 32.944 656.833 34.912V43H653.617V34.912C653.617 33.968 653.441 33.28 653.089 32.848C652.737 32.4 652.129 32.176 651.265 32.176C650.225 32.176 649.153 32.672 648.049 33.664C648.097 34.048 648.121 34.464 648.121 34.912V43H644.905V34.912C644.905 33.968 644.729 33.28 644.377 32.848C644.025 32.4 643.417 32.176 642.553 32.176C641.513 32.176 640.465 32.64 639.409 33.568V43H636.193V29.584H639.409V30.808C640.609 29.8 641.865 29.296 643.177 29.296C644.233 29.296 645.113 29.472 645.817 29.824C646.537 30.16 647.081 30.696 647.449 31.432C648.169 30.712 648.881 30.176 649.585 29.824C650.305 29.472 651.073 29.296 651.889 29.296ZM662.902 37.024C663.158 39.456 664.502 40.672 666.934 40.672C667.558 40.672 668.166 40.592 668.758 40.432C669.35 40.272 670.014 40.016 670.75 39.664L671.614 42.208C670.846 42.64 670.062 42.944 669.262 43.12C668.462 43.312 667.558 43.408 666.55 43.408C665.062 43.408 663.79 43.112 662.734 42.52C661.678 41.912 660.878 41.072 660.334 40C659.806 38.928 659.542 37.68 659.542 36.256C659.542 34.768 659.822 33.496 660.382 32.44C660.942 31.368 661.702 30.56 662.662 30.016C663.622 29.472 664.694 29.2 665.878 29.2C667.75 29.2 669.214 29.76 670.27 30.88C671.342 31.984 671.886 33.608 671.902 35.752V37.024H662.902ZM665.878 31.936C664.31 31.936 663.358 32.8 663.022 34.528H668.518C668.438 33.632 668.182 32.976 667.75 32.56C667.318 32.144 666.694 31.936 665.878 31.936Z" fill="white"/>
<rect x="415" y="400" width="138" height="46" rx="23" fill="#00C8FF" fill-opacity="0.35"/>
<path d="M458.168 420.872H455.384V428H452.048V409.808H458.936C463.224 409.808 465.368 411.656 465.368 415.352C465.368 416.728 465.048 417.856 464.408 418.736C463.768 419.616 462.816 420.224 461.552 420.56L466.16 428H462.44L458.168 420.872ZM455.384 418.016H458.936C460.968 418.016 461.984 417.104 461.984 415.28C461.984 414.368 461.728 413.704 461.216 413.288C460.72 412.872 459.96 412.664 458.936 412.664H455.384V418.016ZM471.648 422.024C471.904 424.456 473.248 425.672 475.68 425.672C476.304 425.672 476.912 425.592 477.504 425.432C478.096 425.272 478.76 425.016 479.496 424.664L480.36 427.208C479.592 427.64 478.808 427.944 478.008 428.12C477.208 428.312 476.304 428.408 475.296 428.408C473.808 428.408 472.536 428.112 471.48 427.52C470.424 426.912 469.624 426.072 469.08 425C468.552 423.928 468.288 422.68 468.288 421.256C468.288 419.768 468.568 418.496 469.128 417.44C469.688 416.368 470.448 415.56 471.408 415.016C472.368 414.472 473.44 414.2 474.624 414.2C476.496 414.2 477.96 414.76 479.016 415.88C480.088 416.984 480.632 418.608 480.648 420.752V422.024H471.648ZM474.624 416.936C473.056 416.936 472.104 417.8 471.768 419.528H477.264C477.184 418.632 476.928 417.976 476.496 417.56C476.064 417.144 475.44 416.936 474.624 416.936ZM488.104 414.584C489.688 414.584 490.888 414.824 491.704 415.304C492.536 415.768 493.088 416.4 493.36 417.2C493.632 417.984 493.768 418.976 493.768 420.176V428H490.552V426.776C489.96 427.32 489.376 427.712 488.8 427.952C488.24 428.192 487.624 428.312 486.952 428.312C485.544 428.312 484.408 427.912 483.544 427.112C482.696 426.296 482.272 425.184 482.272 423.776C482.272 422.336 482.712 421.224 483.592 420.44C484.488 419.64 485.712 419.24 487.264 419.24C488.528 419.24 489.624 419.488 490.552 419.984C490.536 419.376 490.456 418.888 490.312 418.52C490.184 418.152 489.92 417.872 489.52 417.68C489.12 417.472 488.528 417.368 487.744 417.368H485.488V414.584H488.104ZM487.528 425.744C488.504 425.744 489.512 425.296 490.552 424.4V422.288C489.704 421.856 488.832 421.64 487.936 421.64C487.232 421.64 486.656 421.808 486.208 422.144C485.76 422.464 485.536 422.992 485.536 423.728C485.536 424.448 485.72 424.968 486.088 425.288C486.472 425.592 486.952 425.744 487.528 425.744ZM503.108 428.408C500.948 428.392 499.292 427.76 498.14 426.512C497.004 425.248 496.436 423.496 496.436 421.256C496.436 419.048 497.004 417.328 498.14 416.096C499.292 414.848 500.948 414.216 503.108 414.2C503.876 414.2 504.532 414.248 505.076 414.344C505.636 414.44 506.212 414.608 506.804 414.848V417.848C506.212 417.56 505.652 417.36 505.124 417.248C504.612 417.136 504.044 417.08 503.42 417.08C500.988 417.096 499.772 418.48 499.772 421.232C499.772 424.08 500.964 425.504 503.348 425.504C504.5 425.504 505.676 425.16 506.876 424.472L507.812 427.16C506.372 427.992 504.804 428.408 503.108 428.408ZM514.242 417.8V423.872C514.242 424.448 514.338 424.848 514.53 425.072C514.722 425.296 515.074 425.408 515.586 425.408C516.098 425.408 516.586 425.344 517.05 425.216V428.024C516.138 428.216 515.386 428.312 514.794 428.312C513.466 428.312 512.506 428.032 511.914 427.472C511.322 426.912 511.026 426.048 511.026 424.88V417.8H509.25V414.896H511.026V410.336H514.242V414.896H517.314V417.8H514.242Z" fill="#00C8FF"/>
<rect x="738" y="500" width="170.811" height="46" rx="23" fill="#00C8FF" fill-opacity="0.35"/>
<path d="M787.595 526.096V529H773.651V526.144L782.675 513.712H773.963V510.808H786.803V513.664L777.803 526.096H787.595ZM803.232 515.584V529H800.016V527.752C798.8 528.776 797.496 529.288 796.104 529.288C794.376 529.288 793.088 528.848 792.24 527.968C791.408 527.072 790.992 525.632 790.992 523.648V515.584H794.208V523.648C794.208 524.608 794.392 525.304 794.76 525.736C795.144 526.168 795.8 526.384 796.728 526.384C797.816 526.384 798.912 525.92 800.016 524.992V515.584H803.232ZM811.657 529.408C810.617 529.408 809.689 529.32 808.873 529.144C808.057 528.968 807.209 528.672 806.329 528.256V525.304C807.177 525.784 808.033 526.136 808.897 526.36C809.777 526.568 810.697 526.672 811.657 526.672C813.017 526.672 813.697 526.184 813.697 525.208C813.697 524.792 813.577 524.488 813.337 524.296C813.113 524.088 812.753 523.92 812.257 523.792L810.289 523.36C809.057 523.088 808.121 522.648 807.481 522.04C806.857 521.416 806.545 520.528 806.545 519.376C806.545 516.592 808.281 515.2 811.753 515.2C813.273 515.2 814.801 515.488 816.337 516.064V518.896C815.745 518.608 815.065 518.376 814.297 518.2C813.529 518.024 812.729 517.936 811.897 517.936C810.505 517.936 809.809 518.352 809.809 519.184C809.809 519.568 809.921 519.848 810.145 520.024C810.385 520.2 810.737 520.344 811.201 520.456L813.145 520.888C814.441 521.192 815.401 521.648 816.025 522.256C816.649 522.864 816.961 523.8 816.961 525.064C816.961 526.488 816.481 527.568 815.521 528.304C814.561 529.04 813.273 529.408 811.657 529.408ZM823.898 518.8V524.872C823.898 525.448 823.994 525.848 824.186 526.072C824.378 526.296 824.73 526.408 825.242 526.408C825.754 526.408 826.242 526.344 826.706 526.216V529.024C825.794 529.216 825.042 529.312 824.45 529.312C823.122 529.312 822.162 529.032 821.57 528.472C820.978 527.912 820.682 527.048 820.682 525.88V518.8H818.906V515.896H820.682V511.336H823.898V515.896H826.97V518.8H823.898ZM834.44 515.584C836.024 515.584 837.224 515.824 838.04 516.304C838.872 516.768 839.424 517.4 839.696 518.2C839.968 518.984 840.104 519.976 840.104 521.176V529H836.888V527.776C836.296 528.32 835.712 528.712 835.136 528.952C834.576 529.192 833.96 529.312 833.288 529.312C831.88 529.312 830.744 528.912 829.88 528.112C829.032 527.296 828.608 526.184 828.608 524.776C828.608 523.336 829.048 522.224 829.928 521.44C830.824 520.64 832.048 520.24 833.6 520.24C834.864 520.24 835.96 520.488 836.888 520.984C836.872 520.376 836.792 519.888 836.648 519.52C836.52 519.152 836.256 518.872 835.856 518.68C835.456 518.472 834.864 518.368 834.08 518.368H831.824V515.584H834.44ZM833.864 526.744C834.84 526.744 835.848 526.296 836.888 525.4V523.288C836.04 522.856 835.168 522.64 834.272 522.64C833.568 522.64 832.992 522.808 832.544 523.144C832.096 523.464 831.872 523.992 831.872 524.728C831.872 525.448 832.056 525.968 832.424 526.288C832.808 526.592 833.288 526.744 833.864 526.744ZM850.716 515.296C852.444 515.296 853.724 515.736 854.556 516.616C855.404 517.496 855.828 518.928 855.828 520.912V529H852.612V520.912C852.612 519.968 852.42 519.28 852.036 518.848C851.668 518.4 851.02 518.176 850.092 518.176C849.004 518.176 847.908 518.648 846.804 519.592V529H843.588V515.584H846.804V516.832C848.02 515.808 849.324 515.296 850.716 515.296ZM871.741 508.696V529H868.525V527.944C867.309 528.92 866.061 529.408 864.781 529.408C862.957 529.408 861.493 528.8 860.389 527.584C859.285 526.368 858.733 524.6 858.733 522.28C858.733 520.744 858.989 519.448 859.501 518.392C860.013 517.32 860.725 516.52 861.637 515.992C862.549 515.464 863.597 515.2 864.781 515.2C866.077 515.2 867.325 515.68 868.525 516.64V508.696H871.741ZM865.405 526.504C866.461 526.504 867.501 526.096 868.525 525.28V519.304C867.469 518.488 866.429 518.08 865.405 518.08C864.301 518.08 863.469 518.44 862.909 519.16C862.349 519.88 862.069 520.92 862.069 522.28C862.069 523.672 862.349 524.728 862.909 525.448C863.469 526.152 864.301 526.504 865.405 526.504Z" fill="#00C8FF"/>
<rect x="596" y="400" width="184" height="46" rx="23" fill="#008CD2" fill-opacity="0.35"/>
<path d="M649.291 415.712H644.059V431H640.747V415.712H635.515V412.808H649.291V415.712ZM656.858 417.584C658.442 417.584 659.642 417.824 660.458 418.304C661.29 418.768 661.842 419.4 662.114 420.2C662.386 420.984 662.522 421.976 662.522 423.176V431H659.306V429.776C658.714 430.32 658.13 430.712 657.554 430.952C656.994 431.192 656.378 431.312 655.706 431.312C654.298 431.312 653.162 430.912 652.298 430.112C651.45 429.296 651.026 428.184 651.026 426.776C651.026 425.336 651.466 424.224 652.346 423.44C653.242 422.64 654.466 422.24 656.018 422.24C657.282 422.24 658.378 422.488 659.306 422.984C659.29 422.376 659.21 421.888 659.066 421.52C658.938 421.152 658.674 420.872 658.274 420.68C657.874 420.472 657.282 420.368 656.498 420.368H654.242V417.584H656.858ZM656.282 428.744C657.258 428.744 658.266 428.296 659.306 427.4V425.288C658.458 424.856 657.586 424.64 656.69 424.64C655.986 424.64 655.41 424.808 654.962 425.144C654.514 425.464 654.29 425.992 654.29 426.728C654.29 427.448 654.474 427.968 654.842 428.288C655.226 428.592 655.706 428.744 656.282 428.744ZM666.006 411.632H669.222V415.256H666.006V411.632ZM666.006 417.584H669.222V431H666.006V417.584ZM676.853 431.312C675.541 431.312 674.581 431.04 673.973 430.496C673.365 429.936 673.061 429.08 673.061 427.928V410.696H676.277V426.872C676.277 427.448 676.373 427.848 676.565 428.072C676.757 428.296 677.101 428.408 677.597 428.408C678.093 428.408 678.533 428.36 678.917 428.264V431.048C678.165 431.224 677.477 431.312 676.853 431.312ZM700.748 417.584L697.004 431.216H693.284L690.452 422.12L687.644 431.216H683.924L680.156 417.584H683.468L685.82 427.208L688.556 417.584H692.348L695.108 427.208L697.436 417.584H700.748ZM703.318 411.632H706.534V415.256H703.318V411.632ZM703.318 417.584H706.534V431H703.318V417.584ZM717.501 417.296C719.229 417.296 720.509 417.736 721.341 418.616C722.189 419.496 722.613 420.928 722.613 422.912V431H719.397V422.912C719.397 421.968 719.205 421.28 718.821 420.848C718.453 420.4 717.805 420.176 716.877 420.176C715.789 420.176 714.693 420.648 713.589 421.592V431H710.373V417.584H713.589V418.832C714.805 417.808 716.109 417.296 717.501 417.296ZM738.526 410.696V431H735.31V429.944C734.094 430.92 732.846 431.408 731.566 431.408C729.742 431.408 728.278 430.8 727.174 429.584C726.07 428.368 725.518 426.6 725.518 424.28C725.518 422.744 725.774 421.448 726.286 420.392C726.798 419.32 727.51 418.52 728.422 417.992C729.334 417.464 730.382 417.2 731.566 417.2C732.862 417.2 734.11 417.68 735.31 418.64V410.696H738.526ZM732.19 428.504C733.246 428.504 734.286 428.096 735.31 427.28V421.304C734.254 420.488 733.214 420.08 732.19 420.08C731.086 420.08 730.254 420.44 729.694 421.16C729.134 421.88 728.854 422.92 728.854 424.28C728.854 425.672 729.134 426.728 729.694 427.448C730.254 428.152 731.086 428.504 732.19 428.504Z" fill="#008CD2"/>
<rect x="823" y="400" width="215" height="46" rx="23" fill="#FFF600" fill-opacity="0.35"/>
<path d="M871.224 433.552C870.584 433.552 869.984 433.496 869.424 433.384V430.528C869.824 430.608 870.24 430.648 870.672 430.648C871.04 430.648 871.312 430.584 871.488 430.456C871.68 430.328 871.816 430.096 871.896 429.76C871.992 429.424 872.04 428.92 872.04 428.248V411.808H875.376V428.392C875.376 429.784 875.256 430.84 875.016 431.56C874.776 432.296 874.36 432.808 873.768 433.096C873.192 433.4 872.344 433.552 871.224 433.552ZM884.202 416.584C885.786 416.584 886.986 416.824 887.802 417.304C888.634 417.768 889.186 418.4 889.458 419.2C889.73 419.984 889.866 420.976 889.866 422.176V430H886.65V428.776C886.058 429.32 885.474 429.712 884.898 429.952C884.338 430.192 883.722 430.312 883.05 430.312C881.642 430.312 880.506 429.912 879.642 429.112C878.794 428.296 878.37 427.184 878.37 425.776C878.37 424.336 878.81 423.224 879.69 422.44C880.586 421.64 881.81 421.24 883.362 421.24C884.626 421.24 885.722 421.488 886.65 421.984C886.634 421.376 886.554 420.888 886.41 420.52C886.282 420.152 886.018 419.872 885.618 419.68C885.218 419.472 884.626 419.368 883.842 419.368H881.586V416.584H884.202ZM883.626 427.744C884.602 427.744 885.61 427.296 886.65 426.4V424.288C885.802 423.856 884.93 423.64 884.034 423.64C883.33 423.64 882.754 423.808 882.306 424.144C881.858 424.464 881.634 424.992 881.634 425.728C881.634 426.448 881.818 426.968 882.186 427.288C882.57 427.592 883.05 427.744 883.626 427.744ZM905.398 416.584L900.67 430.216H896.638L891.91 416.584H895.222L898.654 427.144L902.086 416.584H905.398ZM912.467 416.584C914.051 416.584 915.251 416.824 916.067 417.304C916.899 417.768 917.451 418.4 917.723 419.2C917.995 419.984 918.131 420.976 918.131 422.176V430H914.915V428.776C914.323 429.32 913.739 429.712 913.163 429.952C912.603 430.192 911.987 430.312 911.315 430.312C909.907 430.312 908.771 429.912 907.907 429.112C907.059 428.296 906.635 427.184 906.635 425.776C906.635 424.336 907.075 423.224 907.955 422.44C908.851 421.64 910.075 421.24 911.627 421.24C912.891 421.24 913.987 421.488 914.915 421.984C914.899 421.376 914.819 420.888 914.675 420.52C914.547 420.152 914.283 419.872 913.883 419.68C913.483 419.472 912.891 419.368 912.107 419.368H909.851V416.584H912.467ZM911.891 427.744C912.867 427.744 913.875 427.296 914.915 426.4V424.288C914.067 423.856 913.195 423.64 912.299 423.64C911.595 423.64 911.019 423.808 910.571 424.144C910.123 424.464 909.899 424.992 909.899 425.728C909.899 426.448 910.083 426.968 910.451 427.288C910.835 427.592 911.315 427.744 911.891 427.744ZM927.567 430.408C925.151 430.408 922.999 429.96 921.111 429.064V426.04C923.047 427.048 925.199 427.552 927.567 427.552C928.703 427.552 929.535 427.336 930.063 426.904C930.591 426.472 930.863 425.896 930.879 425.176C930.879 424.472 930.631 423.944 930.135 423.592C929.655 423.24 928.887 422.92 927.831 422.632L926.199 422.176C925.271 421.92 924.463 421.616 923.775 421.264C923.087 420.896 922.511 420.368 922.047 419.68C921.583 418.976 921.351 418.072 921.351 416.968C921.351 415.176 921.887 413.816 922.959 412.888C924.031 411.944 925.543 411.472 927.495 411.472C928.663 411.472 929.687 411.584 930.567 411.808C931.463 412.016 932.375 412.336 933.303 412.768V415.696C931.559 414.784 929.623 414.328 927.495 414.328C925.607 414.328 924.663 415.12 924.663 416.704C924.679 417.408 924.895 417.928 925.311 418.264C925.743 418.6 926.479 418.904 927.519 419.176L929.175 419.632C930.183 419.904 931.039 420.232 931.743 420.616C932.447 421 933.031 421.552 933.495 422.272C933.959 422.976 934.191 423.896 934.191 425.032C934.175 426.696 933.575 428.008 932.391 428.968C931.223 429.928 929.615 430.408 927.567 430.408ZM943.245 430.408C941.085 430.392 939.429 429.76 938.277 428.512C937.141 427.248 936.573 425.496 936.573 423.256C936.573 421.048 937.141 419.328 938.277 418.096C939.429 416.848 941.085 416.216 943.245 416.2C944.013 416.2 944.669 416.248 945.213 416.344C945.773 416.44 946.349 416.608 946.941 416.848V419.848C946.349 419.56 945.789 419.36 945.261 419.248C944.749 419.136 944.181 419.08 943.557 419.08C941.125 419.096 939.909 420.48 939.909 423.232C939.909 426.08 941.101 427.504 943.485 427.504C944.637 427.504 945.813 427.16 947.013 426.472L947.949 429.16C946.509 429.992 944.941 430.408 943.245 430.408ZM958.122 416.296V419.176H957.57C956.258 419.176 954.97 419.672 953.706 420.664V430H950.49V416.584H953.706V417.928C954.938 416.84 956.226 416.296 957.57 416.296H958.122ZM960.756 410.632H963.972V414.256H960.756V410.632ZM960.756 416.584H963.972V430H960.756V416.584ZM974.771 416.2C975.955 416.2 977.003 416.464 977.915 416.992C978.843 417.52 979.563 418.32 980.075 419.392C980.587 420.448 980.843 421.752 980.843 423.304C980.843 424.856 980.587 426.168 980.075 427.24C979.563 428.296 978.843 429.088 977.915 429.616C977.003 430.144 975.955 430.408 974.771 430.408C973.491 430.408 972.243 429.92 971.027 428.944V435.616H967.811V416.584H971.027V417.64C972.227 416.68 973.475 416.2 974.771 416.2ZM974.171 427.504C975.259 427.504 976.083 427.152 976.643 426.448C977.203 425.728 977.483 424.68 977.483 423.304C977.483 421.928 977.203 420.88 976.643 420.16C976.083 419.44 975.259 419.08 974.171 419.08C973.131 419.08 972.083 419.488 971.027 420.304V426.28C972.051 427.096 973.099 427.504 974.171 427.504ZM987.73 419.8V425.872C987.73 426.448 987.826 426.848 988.018 427.072C988.21 427.296 988.562 427.408 989.074 427.408C989.586 427.408 990.074 427.344 990.538 427.216V430.024C989.626 430.216 988.874 430.312 988.282 430.312C986.954 430.312 985.994 430.032 985.402 429.472C984.81 428.912 984.514 428.048 984.514 426.88V419.8H982.738V416.896H984.514V412.336H987.73V416.896H990.802V419.8H987.73Z" fill="#FFF700"/>
<rect x="530" y="500" width="158" height="46" rx="23" fill="white" fill-opacity="0.35"/>
<path d="M596.642 509.808V528H592.898L585.146 515.232V528H581.81V509.808H585.578L593.306 522.576V509.808H596.642ZM603.331 522.024C603.587 524.456 604.931 525.672 607.363 525.672C607.987 525.672 608.595 525.592 609.187 525.432C609.779 525.272 610.443 525.016 611.179 524.664L612.043 527.208C611.275 527.64 610.491 527.944 609.691 528.12C608.891 528.312 607.987 528.408 606.979 528.408C605.491 528.408 604.219 528.112 603.163 527.52C602.107 526.912 601.307 526.072 600.763 525C600.235 523.928 599.971 522.68 599.971 521.256C599.971 519.768 600.251 518.496 600.811 517.44C601.371 516.368 602.131 515.56 603.091 515.016C604.051 514.472 605.123 514.2 606.307 514.2C608.179 514.2 609.643 514.76 610.699 515.88C611.771 516.984 612.315 518.608 612.331 520.752V522.024H603.331ZM606.307 516.936C604.739 516.936 603.787 517.8 603.451 519.528H608.947C608.867 518.632 608.611 517.976 608.179 517.56C607.747 517.144 607.123 516.936 606.307 516.936ZM623.244 528L620.364 523.536L617.628 528H613.836L618.42 520.992L614.076 514.584H617.868L620.46 518.64L623.076 514.584H626.82L622.356 521.184L627.036 528H623.244ZM633.48 517.8V523.872C633.48 524.448 633.576 524.848 633.768 525.072C633.96 525.296 634.312 525.408 634.824 525.408C635.336 525.408 635.824 525.344 636.288 525.216V528.024C635.376 528.216 634.624 528.312 634.032 528.312C632.704 528.312 631.744 528.032 631.152 527.472C630.56 526.912 630.264 526.048 630.264 524.88V517.8H628.488V514.896H630.264V510.336H633.48V514.896H636.552V517.8H633.48Z" fill="white"/>
</g>
<defs>
<clipPath id="clip0_87_307">
<rect width="1440" height="1024" fill="white"/>
</clipPath>
</defs>
</svg>
